<?xml version="1.0" encoding="utf-8"?>
<!-- Generator: Adobe Illustrator 24.0.1, SVG Export Plug-In . SVG Version: 6.00 Build 0)  -->
<svg version="1.1" id="Layer_1" xmlns="http://www.w3.org/2000/svg" xmlns:xlink="http://www.w3.org/1999/xlink" x="0px" y="0px"
	 viewBox="0 0 32 32" style="enable-background:new 0 0 32 32;" xml:space="preserve">
<style type="text/css">
	.st0{fill:#FFFFFF;}
</style>
<path class="st0" d="M13.3,0c-0.7,0-1.4,0.2-1.9,0.8c-0.5,0.5-0.8,1.2-0.8,1.9V4h-8v2.7H4V28c0,2.2,1.8,4,4,4h16c2.2,0,4-1.8,4-4
	V6.7h1.3V4h-8V2.7c0-0.7-0.2-1.4-0.8-1.9C20.1,0.2,19.4,0,18.7,0H13.3z M13.3,2.7h5.3V4h-5.3V2.7z M6.7,6.7h18.7V28
	c0,0.7-0.6,1.3-1.3,1.3H8c-0.7,0-1.3-0.6-1.3-1.3V6.7z M9.3,10.7v14.7H12V10.7H9.3z M14.7,10.7v14.7h2.7V10.7H14.7z M20,10.7v14.7
	h2.7V10.7H20z"/>
</svg>
